<svg xmlns="http://www.w3.org/2000/svg" width="360" height="307.47" viewBox="0 0 360 307.47"><defs><style>.a,.e{fill:none;}.a{stroke:#06a125;stroke-width:26px;}.b{fill:#fff;}.c{fill:#0b64ca;}.d{stroke:none;}</style></defs><g transform="translate(-793 -293.53)"><g transform="translate(-6856 -2947)"><g class="a" transform="translate(7649 3255)"><circle class="d" cx="146.5" cy="146.5" r="146.5"/><circle class="e" cx="146.5" cy="146.5" r="133.5"/></g><ellipse class="b" cx="72.5" cy="69.5" rx="72.5" ry="69.5" transform="translate(7825 3271)"/></g><g transform="translate(888.454 293.53)"><g transform="translate(-95.349 -21.995)"><path class="c" d="M231.049,237.4a15.67,15.67,0,0,1-11-4.474l-66.136-64.9a15.052,15.052,0,0,1,0-21.59,15.753,15.753,0,0,1,22.005,0l55.131,54.1L387.329,47.183a15.759,15.759,0,0,1,22.005,0,15.052,15.052,0,0,1,0,21.59L242.051,232.923A15.67,15.67,0,0,1,231.049,237.4Zm0,0" transform="translate(-54.001 -20.711)"/></g></g></g></svg>